# xmcd CD database file
#
# Track frame offsets:
#	180
#	133183
#	242658
#
# Disc length: 4117 seconds
#
# Revision: 0
# Processed by: cddbd v1.5.1PL0 Copyright (c) Steve Scherf et al.
# Submitted via: CDex 1.51
#
DISCID=23101303
DTITLE=Various Artist - Search for Fun - Dance Illusion No. 1
DYEAR=2005
DGENRE=Mix
TTITLE0=Mix 1
TTITLE1=Mix 2
TTITLE2=Mix 3
EXTD=YEAR: 2005
EXTT0=
EXTT1=
EXTT2=
PLAYORDER=
